<svg xmlns="http://www.w3.org/2000/svg" xmlns:xlink="http://www.w3.org/1999/xlink" width="50" height="41" viewBox="0 0 50 41">
  <defs>
    <clipPath id="clip-Artboard_1">
      <rect width="50" height="41"/>
    </clipPath>
  </defs>
  <g id="Artboard_1" data-name="Artboard – 1" clip-path="url(#clip-Artboard_1)">
    <rect width="50" height="41" fill="#fff"/>
    <g id="Group_4" data-name="Group 4" transform="translate(-2)">
      <path id="Subtraction_3" data-name="Subtraction 3" d="M-405.244-183.422h0L-410.6-190.8l-5.6,2.8-6.6-7-8.916,10.387a9.266,9.266,0,0,1-3.48-6.638,17.838,17.838,0,0,1,2.711-1.7.192.192,0,0,0,.014.021l0,0a.242.242,0,0,0,.145.079.427.427,0,0,0,.086.007.633.633,0,0,0,.08,0l.059.074a.257.257,0,0,1,.017.031l.261.787a.156.156,0,0,0,.121.1.159.159,0,0,0,.035,0,.158.158,0,0,0,.079-.021l.144-.081a.171.171,0,0,0,.084-.113v-.013l.087-1.035.048-.018.021-.008.045-.019c.418-.172.9-.4,1.4-.662l.37.458a.229.229,0,0,1,.023.038l.61,1.471a.156.156,0,0,0,.121.094.146.146,0,0,0,.034,0,.161.161,0,0,0,.08-.021l.3-.169a.157.157,0,0,0,.076-.1.142.142,0,0,0,0-.044l-.1-.664.209-.117a.128.128,0,0,0,.067-.087.125.125,0,0,0-.029-.1l-.11-.138a.185.185,0,0,0-.107-.062.244.244,0,0,0-.037,0,.189.189,0,0,0-.068.013l-.013-.093.228-.127a.128.128,0,0,0,.067-.088.126.126,0,0,0-.029-.105l-.11-.136a.189.189,0,0,0-.107-.063l-.037,0a.176.176,0,0,0-.086.021l-.1-.652.015-.008.129-.068.005,0,.1-.052a7.513,7.513,0,0,0,1.027-.6,1.391,1.391,0,0,0,.552-.706.258.258,0,0,0-.015-.169.2.2,0,0,0-.022-.035.156.156,0,0,0-.028-.027.391.391,0,0,0-.184-.078,1,1,0,0,0-.188-.016,2.346,2.346,0,0,0-.806.173,7.67,7.67,0,0,0-1.032.55l-.026.016-.076.045-.091.054-.068.04-.689-.324a.128.128,0,0,0,.068-.088.132.132,0,0,0-.029-.106l-.109-.136a.184.184,0,0,0-.107-.062.284.284,0,0,0-.039,0,.177.177,0,0,0-.085.021l-.228.127-.1-.046a.122.122,0,0,0,.05-.077.127.127,0,0,0-.029-.106l-.11-.137a.181.181,0,0,0-.107-.062l-.036,0a.179.179,0,0,0-.085.021l-.21.116-.7-.328a.228.228,0,0,0-.051-.017.4.4,0,0,0-.045,0,.213.213,0,0,0-.1.023l-.3.168a.127.127,0,0,0-.063.081.126.126,0,0,0,.058.128l1.407,1.031a.344.344,0,0,1,.032.032l.369.458c-.485.288-.923.573-1.268.824l-.022.016-.042.032-.008.006-.021.016-1.181-.325-.02-.005a.394.394,0,0,0-.046,0,.249.249,0,0,0-.113.027l-.14.078a.122.122,0,0,0-.063.081.125.125,0,0,0,.065.131l.777.5a.2.2,0,0,1,.029.026l.058.072a.363.363,0,0,0-.06.13.2.2,0,0,0,0,.024,27.958,27.958,0,0,0-2.688,1.275c.1-2.966,1.924-5.757,5.122-7.86A22.751,22.751,0,0,1-417.7-203a22.755,22.755,0,0,1,12.374,3.369c3.305,2.172,5.125,5.06,5.125,8.132,0,3.043-1.791,5.912-5.043,8.078Z" transform="translate(446.2 211.999)" fill="#f25f26"/>
      <g id="Group_2" data-name="Group 2" transform="translate(-435 -239)">
        <line id="Line_1" data-name="Line 1" x1="5.333" y1="7.417" transform="translate(470.5 261.5)" fill="none" stroke="#202020" stroke-linecap="round" stroke-width="1"/>
        <path id="Path_6" data-name="Path 6" d="M-1.493,2.917,4.507,0" transform="translate(465.993 261.5)" fill="none" stroke="#202020" stroke-linecap="round" stroke-width="1"/>
        <line id="Line_3" data-name="Line 3" x2="6" y2="7" transform="translate(458.5 257.5)" fill="none" stroke="#202020" stroke-linecap="round" stroke-width="1"/>
        <line id="Line_4" data-name="Line 4" y1="11.417" x2="10" transform="translate(448.5 257.5)" fill="none" stroke="#202020" stroke-linecap="round" stroke-width="1"/>
      </g>
      <path id="Subtraction_4" data-name="Subtraction 4" d="M-421.153-189.217h-.005c-10.877,0-18.623-2.685-18.837-6.529a4.122,4.122,0,0,1,1.261-2.951,13.979,13.979,0,0,1,3.922-2.834v.42c-2.011,1.442-3.031,2.973-2.95,4.428.212,3.844,7.961,6.529,18.844,6.529,2,0,4.053-.092,6.115-.274a60.2,60.2,0,0,0,15.527-3.314,42.589,42.589,0,0,1-7.871,2.656,67.192,67.192,0,0,1-9.888,1.595C-417.1-189.309-419.157-189.217-421.153-189.217Z" transform="translate(445.875 221.788)" fill="#242424"/>
      <g id="airplane-shape" transform="translate(13.495 14.63) rotate(11)">
        <path id="Path_2" data-name="Path 2" d="M5.787,1.056a1.4,1.4,0,0,0,.407-.8A.26.26,0,0,0,6.146.1a.135.135,0,0,0-.028-.03A.163.163,0,0,0,6.085.044.4.4,0,0,0,5.889,0a1.976,1.976,0,0,0-.946.343,7.732,7.732,0,0,0-.931.757l-.2.181L3.07,1.1l0,0a.125.125,0,0,0,0-.2L2.938.786A.183.183,0,0,0,2.821.745.179.179,0,0,0,2.7.786L2.5.954,2.4.927A.123.123,0,0,0,2.434.843a.127.127,0,0,0-.048-.1L2.252.63A.183.183,0,0,0,2.135.59a.178.178,0,0,0-.116.041L1.836.785,1.085.6A.227.227,0,0,0,.893.636L.629.859A.122.122,0,0,0,.583.951a.126.126,0,0,0,.08.114l1.578.743a.276.276,0,0,1,.038.025l.45.379c-.421.374-.8.736-1.088,1.051l-.078.086L.343,3.255H.321a.248.248,0,0,0-.151.053l-.123.1A.12.12,0,0,0,0,3.5a.127.127,0,0,0,.089.116l.859.344a.2.2,0,0,1,.033.02l.071.06a.38.38,0,0,0-.034.139.168.168,0,0,0,.06.133l0,0h0a.241.241,0,0,0,.158.05A.611.611,0,0,0,1.4,4.338l.072.061a.168.168,0,0,1,.023.027l.407.722a.155.155,0,0,0,.137.076h0a.168.168,0,0,0,.108-.039l.126-.107a.175.175,0,0,0,.06-.127c0-.006,0-.01,0-.013L2.225,3.907l.1-.066c.374-.247.8-.563,1.246-.917l.45.38a.211.211,0,0,1,.029.033l.88,1.328a.159.159,0,0,0,.136.069.169.169,0,0,0,.11-.039l.266-.224A.157.157,0,0,0,5.5,4.354.137.137,0,0,0,5.49,4.31l-.225-.633.183-.154a.125.125,0,0,0,0-.2l-.134-.113A.182.182,0,0,0,5.2,3.172a.185.185,0,0,0-.1.029l-.031-.089.2-.168a.13.13,0,0,0,.048-.1.128.128,0,0,0-.048-.1l-.133-.113a.188.188,0,0,0-.234,0h0l-.221-.622.218-.175A7.535,7.535,0,0,0,5.787,1.056Z" transform="translate(0)" fill="none" stroke="#242424" stroke-width="0.6"/>
      </g>
    </g>
  </g>
</svg>
