<?xml version="1.0"?>
<svg xmlns="http://www.w3.org/2000/svg" enable-background="new 0 0 59.547 46" height="512px" viewBox="0 0 59.547 46" width="512px" class=""><g><path d="m30 46c-12.682 0-23-10.317-23-23s10.318-23 23-23 23 10.317 23 23-10.318 23-23 23zm0-44c-11.58 0-21 9.421-21 21s9.42 21 21 21 21-9.421 21-21-9.42-21-21-21z" data-original="#000000" class="active-path" data-old_color="#000000" fill="#FFFFFF"/><path d="m26.056 21.14c-.04 0-.08-.002-.12-.007-.548-.065-.94-.563-.875-1.111.272-2.28 1.394-5.032 2.287-6.939.299-.64.923-1.059 1.627-1.095.704-.033 1.375.319 1.74.928l.993 1.655c.191.318.523.379.77.327.137-.028.461-.136.516-.534l.017-.127c.223-1.887 1.453-3.498 3.208-4.201l2.318-.927c1.046-.763.228-4.081-.459-5.723-.138-.331-.089-.71.129-.994.218-.285.57-.429.927-.383l.231.031c.547.074.931.578.857 1.125-.007.052-.018.102-.032.149.622 1.75 1.819 6.027-.671 7.54-.047.029-.097.054-.148.074l-2.411.964c-1.074.43-1.827 1.421-1.965 2.585l-.021.156c-.154 1.122-.977 1.994-2.096 2.224-1.153.233-2.285-.258-2.886-1.258l-.907-1.513c-.688 1.487-1.794 4.123-2.039 6.171-.059.51-.491.883-.99.883z" data-original="#000000" class="active-path" data-old_color="#000000" fill="#FFFFFF"/><path d="m37.655 40.016c-.344 0-.609-.032-.749-.054-1.181-.043-2.605-.93-2.904-4.776-.042-.551.369-1.031.919-1.074.546-.042 1.031.369 1.075.92.167 2.151.691 2.933 1.003 2.933.068 0 .136.007.203.021.005.003 1.343.243 2.374-.61.932-.772 1.424-2.285 1.424-4.376 0-.553.448-1 1-1s1 .447 1 1c0 2.765-.732 4.763-2.177 5.938-1.106.901-2.357 1.078-3.168 1.078z" data-original="#000000" class="active-path" data-old_color="#000000" fill="#FFFFFF"/><path d="m25.694 45.575c-.065 0-.13-.006-.196-.02-6.83-1.355-12.807-5.88-15.987-12.104-.251-.492-.056-1.094.436-1.346.492-.25 1.094-.055 1.346.436 2.764 5.408 7.839 9.412 13.698 10.853l.107-.375c.48-1.684.01-3.498-1.227-4.735l-.605-.605c-.555-.555-1.202-.992-1.922-1.301l-3.084-1.322c-1.616-.692-2.792-2.134-3.147-3.854-.111-.541.236-1.07.777-1.182.542-.108 1.07.236 1.182.777.223 1.08.962 1.984 1.977 2.42l3.084 1.322c.955.409 1.813.989 2.549 1.725l.605.605c1.75 1.751 2.416 4.317 1.736 6.698l-.366 1.281c-.127.438-.525.727-.963.727z" data-original="#000000" class="active-path" data-old_color="#000000" fill="#FFFFFF"/><path d="m8.032 22.82c-.208 0-.413-.064-.586-.189-.275-.199-.431-.524-.413-.863.405-7.658 4.59-14.583 11.195-18.527.427-.256.976-.158 1.289.229.956 1.177 1.483 2.652 1.483 4.151v1.302c0 1.392-.542 2.699-1.526 3.683l-2.882 2.882c-.276.276-.372.679-.248 1.05.506 1.518-.261 3.172-1.747 3.767l-6.203 2.448c-.116.045-.239.067-.362.067zm10.419-17.359c-5.127 3.38-8.501 8.793-9.278 14.842l4.682-1.856c.504-.201.764-.762.592-1.276-.365-1.094-.085-2.28.73-3.097l2.882-2.882c.607-.606.941-1.412.941-2.269v-1.302c0-.751-.191-1.494-.549-2.16z" data-original="#000000" class="active-path" data-old_color="#000000" fill="#FFFFFF"/><path d="m25 32c-.256 0-.512-.098-.707-.293-.391-.391-.391-1.023 0-1.414l2.293-2.293-2.293-2.293c-.391-.391-.391-1.023 0-1.414s1.023-.391 1.414 0l3 3c.391.391.391 1.023 0 1.414l-3 3c-.195.195-.451.293-.707.293z" data-original="#000000" class="active-path" data-old_color="#000000" fill="#FFFFFF"/><path d="m36 29h-8c-.552 0-1-.447-1-1s.448-1 1-1h8c.552 0 1 .447 1 1s-.448 1-1 1z" data-original="#000000" class="active-path" data-old_color="#000000" fill="#FFFFFF"/><path d="m33 29c-.419 0-.809-.265-.949-.684l-2-6c-.175-.524.108-1.091.632-1.265.526-.176 1.091.108 1.265.632l2 6c.175.524-.108 1.091-.632 1.265-.105.035-.212.052-.316.052z" data-original="#000000" class="active-path" data-old_color="#000000" fill="#FFFFFF"/><path d="m31 35c-.104 0-.211-.017-.316-.052-.524-.174-.807-.74-.632-1.265l2-6c.175-.523.739-.808 1.265-.632.524.174.807.74.632 1.265l-2 6c-.14.419-.53.684-.949.684z" data-original="#000000" class="active-path" data-old_color="#000000" fill="#FFFFFF"/><path d="m42 28.464c-.51 0-.946-.389-.995-.906-.052-.55.352-1.038.902-1.09 1.018-.095 2.004-.203 2.954-.322.545-.065 1.047.319 1.116.868.069.548-.32 1.048-.868 1.116-.969.121-1.976.231-3.014.329-.033.004-.064.005-.095.005z" data-original="#000000" class="active-path" data-old_color="#000000" fill="#FFFFFF"/><path d="m52.049 26.897c-.451 0-.86-.307-.971-.765-.13-.537.2-1.077.737-1.207 4.339-1.05 5.624-2.109 5.976-2.517.36-.419.992-.465 1.41-.104.418.36.464.992.104 1.41-1.053 1.221-3.415 2.282-7.019 3.153-.08.022-.159.03-.237.03z" data-original="#000000" class="active-path" data-old_color="#000000" fill="#FFFFFF"/><path d="m54.312 19.729c-.101 0-.202-.015-.303-.047-.831-.264-1.779-.517-2.818-.752-.539-.122-.876-.658-.754-1.196.122-.539.657-.875 1.196-.755 1.094.248 2.097.517 2.98.797.527.167.818.729.651 1.256-.135.425-.529.697-.952.697z" data-original="#000000" class="active-path" data-old_color="#000000" fill="#FFFFFF"/><path d="m5.688 19.729c-.424 0-.817-.271-.953-.697-.167-.526.124-1.089.651-1.256.884-.28 1.887-.549 2.98-.797.541-.12 1.075.216 1.196.755.122.538-.215 1.074-.754 1.196-1.04.235-1.987.488-2.818.752-.099.032-.201.047-.302.047z" data-original="#000000" class="active-path" data-old_color="#000000" fill="#FFFFFF"/><path d="m13.921 27.993c-.046 0-.092-.003-.138-.01-1.851-.255-3.57-.556-5.11-.894-.54-.118-.881-.651-.762-1.191.119-.539.654-.876 1.191-.762 1.489.327 3.156.618 4.954.866.547.075.929.58.854 1.127-.069.502-.497.864-.989.864zm-9.925-2.334c-.128 0-.259-.024-.385-.077-2.43-1.015-3.611-2.186-3.611-3.582 0-.479.15-.947.447-1.39.307-.46.929-.581 1.387-.274.459.308.582.929.274 1.388-.072.107-.108.2-.108.276 0 .275.501.951 2.382 1.736.51.213.75.799.538 1.308-.161.384-.532.615-.924.615z" data-original="#000000" class="active-path" data-old_color="#000000" fill="#FFFFFF"/><path d="m22.001 28.769c-.02 0-.04-.001-.06-.002-1.031-.061-2.039-.133-3.02-.217-.55-.047-.958-.531-.912-1.081.047-.551.532-.975 1.082-.911.964.082 1.954.152 2.968.213.551.032.972.506.939 1.058-.031.529-.472.94-.997.94z" data-original="#000000" class="active-path" data-old_color="#000000" fill="#FFFFFF"/><path d="m43 23c-7 0-7-1.301-7-2 0-.553.448-1 1-1 .379 0 .709.211.879.522.63.247 2.703.454 4.772.476l4.724-3.779 2.952-1.973c.459-.307 1.08-.183 1.387.277.306.459.182 1.08-.277 1.387l-2.882 1.922-4.93 3.949c-.178.142-.398.219-.625.219z" data-original="#000000" class="active-path" data-old_color="#000000" fill="#FFFFFF"/></g> </svg>
